<?xml version="1.0" encoding="UTF-8"?>
<svg version="1.1" xmlns="http://www.w3.org/2000/svg" width="345" height="92">
<path d="M0 0 C113.85 0 227.7 0 345 0 C345 30.36 345 60.72 345 92 C231.15 92 117.3 92 0 92 C0 61.64 0 31.28 0 0 Z " fill="#FCFDFD" transform="translate(0,0)"/>
<path d="M0 0 C1.56047445 0.00015913 3.12095416 0.00585397 4.68139648 0.01586914 C5.91115456 0.01799156 5.91115456 0.01799156 7.16575623 0.02015686 C9.79470406 0.0257725 12.42356797 0.0383276 15.05249023 0.05102539 C16.8304838 0.05603838 18.60847869 0.06060163 20.38647461 0.06469727 C24.75434569 0.07574701 29.12215371 0.09302208 33.48999023 0.11352539 C35.87234997 3.81831887 35.6581702 6.92605083 35.50170898 11.25024414 C35.47905472 11.93029007 35.45640045 12.610336 35.43305969 13.31098938 C35.38325261 14.74250352 35.32831276 16.17384719 35.26855469 17.60498047 C35.17738659 19.80352484 35.10289925 22.00216519 35.03100586 24.20141602 C34.64072584 34.96278979 34.64072584 34.96278979 33.48999023 36.11352539 C30.67835644 36.20214531 27.89140768 36.22874894 25.07983398 36.21118164 C24.23779922 36.20976669 23.39576447 36.20835175 22.5282135 36.20689392 C19.82793689 36.20127802 17.12774196 36.18872287 14.42749023 36.17602539 C12.60131955 36.17101244 10.77514758 36.16644918 8.94897461 36.16235352 C4.46261481 36.15130343 -0.02368361 36.13402818 -4.51000977 36.11352539 C-4.53466074 31.1473019 -4.55284625 26.18111373 -4.56494141 21.21484375 C-4.56998166 19.52408224 -4.57681381 17.8333251 -4.58544922 16.14257812 C-4.59752833 13.71751832 -4.603241 11.29251595 -4.60766602 8.86743164 C-4.6128273 8.10701065 -4.61798859 7.34658966 -4.62330627 6.56312561 C-4.62350214 4.74619969 -4.57198253 2.92939412 -4.51000977 1.11352539 C-3.51000977 0.11352539 -3.51000977 0.11352539 0 0 Z " fill="#E3EBFD" transform="translate(38.510009765625,29.886474609375)"/>
<path d="M0 0 C3.135 -0.061875 6.27 -0.12375 9.5 -0.1875 C10.95696289 -0.22846802 10.95696289 -0.22846802 12.44335938 -0.27026367 C19.62620671 -0.33820558 25.22900369 0.65067704 30.875 5.4375 C36.1008479 11.73925776 35.7175669 18.04318226 35 26 C33.54392998 31.12676152 30.04658142 34.12711912 25.78125 37.0546875 C22.34167012 38.88007858 19.08288131 39.12232616 15.234375 39.09765625 C14.43225586 39.09515869 13.63013672 39.09266113 12.80371094 39.09008789 C11.79598633 39.08098389 10.78826172 39.07187988 9.75 39.0625 C6.5325 39.041875 3.315 39.02125 0 39 C0 26.13 0 13.26 0 0 Z " fill="#5B72EE" transform="translate(92,23)"/>
<path d="M0 0 C3.92108298 2.27422813 6.10970264 4.78190527 8.125 8.8125 C9.16559982 15.78056716 7.89681286 20.2538044 3.92578125 26 C0.41091176 29.53774282 -3.4691964 30.11880066 -8.3125 30.1875 C-13.30155947 30.0802084 -16.11734931 29.29520064 -19.875 25.8125 C-23.50333663 21.99319828 -24.18500458 18.92970994 -24.375 13.8125 C-24.18556958 8.71682172 -23.54525187 5.57933745 -19.875 1.8125 C-14.06433476 -2.33797517 -6.60078638 -2.48416692 0 0 Z " fill="#5B72EE" transform="translate(154.875,33.1875)"/>
<path d="M0 0 C0.80103149 0.00202423 1.60206299 0.00404846 2.42736816 0.00613403 C3.24483521 0.00517731 4.06230225 0.00422058 4.90454102 0.00323486 C6.63627194 0.00255308 8.3680054 0.00440724 10.09973145 0.00857544 C12.75978298 0.01392374 15.41966566 0.00863041 18.07971191 0.00222778 C19.75809771 0.00288857 21.43648339 0.00416973 23.11486816 0.00613403 C23.91589966 0.0041098 24.71693115 0.00208557 25.54223633 0 C31.15616738 0.02399575 31.15616738 0.02399575 32.27111816 1.13894653 C32.34370762 3.32534106 32.35485599 5.51395042 32.33361816 7.70144653 C32.32459473 8.8989856 32.31557129 10.09652466 32.30627441 11.33035278 C32.29467285 12.25718872 32.28307129 13.18402466 32.27111816 14.13894653 C28.3544679 14.16848044 24.43784703 14.18592156 20.52111816 14.20144653 C19.42928223 14.20982544 18.33744629 14.21820435 17.21252441 14.22683716 C9.84638447 14.24863047 2.60033041 13.87402243 -4.72888184 13.13894653 C-4.56388184 14.37644653 -4.39888184 15.61394653 -4.22888184 16.88894653 C-3.57775755 22.63901596 -3.64087769 28.36000793 -3.72888184 34.13894653 C-2.77018188 34.13109131 -2.77018188 34.13109131 -1.79211426 34.12307739 C1.16645279 34.10200384 4.12500396 34.08919133 7.08361816 34.07644653 C8.08844238 34.06806763 9.0932666 34.05968872 10.12854004 34.05105591 C16.91018223 34.02924998 23.52560616 34.43269754 30.27111816 35.13894653 C30.27111816 28.86894653 30.27111816 22.59894653 30.27111816 16.13894653 C30.93111816 16.13894653 31.59111816 16.13894653 32.27111816 16.13894653 C32.30000331 19.28476077 32.31787739 22.43054122 32.33361816 25.57644653 C32.34199707 26.47427856 32.35037598 27.3721106 32.35900879 28.29714966 C32.36223145 29.15115356 32.3654541 30.00515747 32.36877441 30.88504028 C32.37401123 31.67579956 32.37924805 32.46655884 32.38464355 33.28128052 C32.27111816 35.13894653 32.27111816 35.13894653 31.27111816 36.13894653 C28.45948437 36.22756646 25.67253561 36.25417008 22.86096191 36.23660278 C22.01892715 36.23518784 21.1768924 36.23377289 20.30934143 36.23231506 C17.60906482 36.22669917 14.90886989 36.21414402 12.20861816 36.20144653 C10.38244748 36.19643358 8.55627551 36.19187032 6.73010254 36.18777466 C2.24374274 36.17672457 -2.24255568 36.15944932 -6.72888184 36.13894653 C-6.75353281 31.17272304 -6.77171832 26.20653487 -6.78381348 21.24026489 C-6.78885373 19.54950338 -6.79568588 17.85874624 -6.80432129 16.16799927 C-6.8164004 13.74293946 -6.82211307 11.31793709 -6.82653809 8.89285278 C-6.83169937 8.13243179 -6.83686066 7.3720108 -6.84217834 6.58854675 C-6.84237421 4.77162083 -6.7908546 2.95481526 -6.72888184 1.13894653 C-4.91322747 -0.67670783 -2.41618222 0.01032754 0 0 Z " fill="#6D77A7" transform="translate(40.7288818359375,29.861053466796875)"/>
<path d="M0 0 C2.97 0 5.94 0 9 0 C9.25394531 0.64066406 9.50789062 1.28132813 9.76953125 1.94140625 C10.11371094 2.80636719 10.45789063 3.67132813 10.8125 4.5625 C11.14894531 5.40941406 11.48539063 6.25632812 11.83203125 7.12890625 C13.17788952 10.43728694 14.59305629 13.71713134 16 17 C17.65 11.39 19.3 5.78 21 0 C23.64 0 26.28 0 29 0 C29.24629119 7.55492246 27.3368266 13.92470821 25.25 21.125 C24.90195313 22.38699219 24.55390625 23.64898437 24.1953125 24.94921875 C23.84726563 26.16480469 23.49921875 27.38039063 23.140625 28.6328125 C22.82641602 29.73512207 22.51220703 30.83743164 22.18847656 31.97314453 C20.89542746 35.26632917 19.42976427 37.43910009 17 40 C13.85069107 41.04976964 11.61185544 41.10131595 8.3125 41.0625 C7.31863281 41.05347656 6.32476562 41.04445312 5.30078125 41.03515625 C4.16189453 41.01775391 4.16189453 41.01775391 3 41 C3 38.36 3 35.72 3 33 C3.69867188 32.97421875 4.39734375 32.9484375 5.1171875 32.921875 C6.02726563 32.86515625 6.93734375 32.8084375 7.875 32.75 C8.77992188 32.70359375 9.68484375 32.6571875 10.6171875 32.609375 C13.17110544 32.24388852 13.17110544 32.24388852 14.3203125 29.953125 C14.65675781 28.98632812 14.65675781 28.98632812 15 28 C12.69 28 10.38 28 8 28 C7.03852522 24.8342787 6.08140467 21.66725638 5.125 18.5 C4.85558594 17.613125 4.58617187 16.72625 4.30859375 15.8125 C2.7280147 10.56960364 1.28127068 5.32411506 0 0 Z " fill="#5D73ED" transform="translate(214,33)"/>
<path d="M0 0 C2.64 0 5.28 0 8 0 C8.98142381 4.24733832 9.30920379 8.47324533 9.5625 12.8125 C9.60568359 13.50537109 9.64886719 14.19824219 9.69335938 14.91210938 C9.79861453 16.60788686 9.89972863 18.30392052 10 20 C10.60134766 18.93458984 10.60134766 18.93458984 11.21484375 17.84765625 C15.80274686 10.43002605 15.80274686 10.43002605 19.46875 9.11328125 C21.69198535 8.89869683 23.77471614 8.82843617 26 9 C26.33 9.66 26.66 10.32 27 11 C25.25338217 13.85810191 23.31522534 16.54650812 21.37109375 19.2734375 C19.70734765 21.82373457 19.70734765 21.82373457 20.55859375 24.03515625 C21.03425781 24.68355469 21.50992187 25.33195312 22 26 C22.56976563 26.81597656 23.13953125 27.63195312 23.7265625 28.47265625 C24.99525063 30.20339746 26.26609624 31.93255918 27.5390625 33.66015625 C29 36 29 36 29 39 C24.55911314 40.03276438 22.03325796 40.1948427 18 38 C16.0859375 35.43359375 16.0859375 35.43359375 14.375 32.4375 C12.13492057 28.10508419 12.13492057 28.10508419 8 26 C8 30.29 8 34.58 8 39 C5.36 39 2.72 39 0 39 C0 26.13 0 13.26 0 0 Z " fill="#6276DE" transform="translate(283,23)"/>
<path d="M0 0 C3.07469523 1.70251719 5.40613254 3.81226508 7 7 C7.08449628 8.7404417 7.10723024 10.48409722 7.09765625 12.2265625 C7.09443359 13.2578125 7.09121094 14.2890625 7.08789062 15.3515625 C7.07951172 16.43179688 7.07113281 17.51203125 7.0625 18.625 C7.05798828 19.71296875 7.05347656 20.8009375 7.04882812 21.921875 C7.03701776 24.61463789 7.02054778 27.30729188 7 30 C4.03 30 1.06 30 -2 30 C-2.33 23.07 -2.66 16.14 -3 9 C-5.31 9.33 -7.62 9.66 -10 10 C-10.06058594 11.02480469 -10.12117188 12.04960938 -10.18359375 13.10546875 C-10.26805026 14.46615695 -10.35269567 15.82683343 -10.4375 17.1875 C-10.49647461 18.19780273 -10.49647461 18.19780273 -10.55664062 19.22851562 C-10.78927565 22.89699102 -11.17207011 26.41694206 -12 30 C-14.97 30 -17.94 30 -21 30 C-21 20.43 -21 10.86 -21 1 C-17.66666667 1 -14.33333333 1 -11 1 C-7.51556578 -0.74221711 -3.80112955 -0.58675154 0 0 Z " fill="#687BE3" transform="translate(269,32)"/>
<path d="M0 0 C3.05192973 1.59719095 5.99662591 3.15309998 8 6 C8.1875 9.1875 8.1875 9.1875 8 12 C2.60598179 12.26527958 2.60598179 12.26527958 0 12 C-1.625 10.5 -1.625 10.5 -3 9 C-6.04230823 8.49989476 -6.04230823 8.49989476 -9 9 C-10.99825961 11.99738941 -11.27550398 12.63347508 -11.25 16 C-11.25515625 16.680625 -11.2603125 17.36125 -11.265625 18.0625 C-11.09917603 20.32416007 -11.09917603 20.32416007 -9 23 C-6.06556598 22.73343428 -6.06556598 22.73343428 -3 22 C-2.34 21.01 -1.68 20.02 -1 19 C1.1640625 18.70703125 1.1640625 18.70703125 3.625 18.8125 C4.85089844 18.85310547 4.85089844 18.85310547 6.1015625 18.89453125 C6.72804687 18.92933594 7.35453125 18.96414062 8 19 C8.45782446 22.93729039 8.35642392 24.52476811 5.9375 27.75 C1.59747916 31.07427128 -2.01189886 31.96385271 -7.4375 32.0625 C-13.17932286 30.35002652 -17.42070373 26.63216046 -20.5 21.5 C-21.88777432 14.56112841 -20.80005289 9.82001455 -17 4 C-12.71733683 -1.35332896 -6.34830331 -0.93705009 0 0 Z " fill="#5E73EB" transform="translate(187,32)"/>
<path d="M0 0 C3.96 0 7.92 0 12 0 C12 12.87 12 25.74 12 39 C9.03 39 6.06 39 3 39 C3 28.44 3 17.88 3 7 C2.01 7 1.02 7 0 7 C0 4.69 0 2.38 0 0 Z " fill="#5670F6" transform="translate(198,23)"/>
<path d="M0 0 C12 1.2 12 1.2 16 3 C18.97020142 7.45530213 18.74822843 11.77767099 18 17 C15.77558072 20.17774183 14.32513603 21.53441166 10.6875 22.8125 C7.13309183 23.06048197 3.5630482 23 0 23 C0 15.41 0 7.82 0 0 Z " fill="#EFF5FC" transform="translate(100,31)"/>
<path d="M0 0 C9.38554713 -0.11731934 18.64538429 0.33520497 28 1 C28.33 1.99 28.66 2.98 29 4 C28.278125 4.226875 27.55625 4.45375 26.8125 4.6875 C22.81409692 6.55342144 20.23344437 9.45819453 17.5 12.875 C16 14 16 14 13.5 13.8125 C11 13 11 13 8 11 C8.309375 11.556875 8.61875 12.11375 8.9375 12.6875 C10.0663002 15.14430044 10.6384857 17.32479417 11 20 C10.67 20.33 10.34 20.66 10 21 C7.03 21 4.06 21 1 21 C0.67 14.07 0.34 7.14 0 0 Z " fill="#F6F9FC" transform="translate(36,43)"/>
<path d="M0 0 C11.55 0 23.1 0 35 0 C35 2.97 35 5.94 35 9 C23.45 9 11.9 9 0 9 C0 6.03 0 3.06 0 0 Z " fill="#F1F8FD" transform="translate(36,32)"/>
<path d="M0 0 C3.2175 -0.04125 6.435 -0.0825 9.75 -0.125 C11.26158691 -0.15231201 11.26158691 -0.15231201 12.80371094 -0.18017578 C13.60583008 -0.1851709 14.40794922 -0.19016602 15.234375 -0.1953125 C16.05131836 -0.20578613 16.86826172 -0.21625977 17.70996094 -0.22705078 C20 0 20 0 24 2 C12.615 1.505 12.615 1.505 1 1 C1.33 12.88 1.66 24.76 2 37 C16.73289481 38.19256959 16.73289481 38.19256959 24 34 C25.32 34 26.64 34 28 34 C27.67 32.68 27.34 31.36 27 30 C26.0925 30.33 25.185 30.66 24.25 31 C18.93816204 32.55521854 13.47979305 32.16196433 8 32 C8 31.67 8 31.34 8 31 C9.33804688 30.85304688 9.33804688 30.85304688 10.703125 30.703125 C11.87359375 30.55359375 13.0440625 30.4040625 14.25 30.25 C15.41015625 30.11078125 16.5703125 29.9715625 17.765625 29.828125 C21.4424669 28.88671137 22.82148557 28.08711435 25 25 C25.5553654 22.29162873 25.5553654 22.29162873 25.375 19.4375 C25.36210938 18.48746094 25.34921875 17.53742187 25.3359375 16.55859375 C25.16034356 13.76204684 25.16034356 13.76204684 23 11 C20.42320771 10.29644885 17.99510903 9.75482468 15.375 9.3125 C14.66859375 9.18294922 13.9621875 9.05339844 13.234375 8.91992188 C11.49160646 8.60198437 9.74603126 8.29950171 8 8 C10 6 10 6 12.4609375 5.953125 C13.90339844 6.10007812 13.90339844 6.10007812 15.375 6.25 C16.33148438 6.33765625 17.28796875 6.4253125 18.2734375 6.515625 C20.96840242 6.99438668 22.74080402 7.4673296 25 9 C27.24583847 12.21662026 27.37405547 15.40218392 27.625 19.25 C27.69976562 20.32765625 27.77453125 21.4053125 27.8515625 22.515625 C27.92503906 23.74539062 27.92503906 23.74539062 28 25 C28.99 25 29.98 25 31 25 C31 19.06 31 13.12 31 7 C29.68 6.34 28.36 5.68 27 5 C26.34 4.67 25.68 4.34 25 4 C25.33 3.34 25.66 2.68 26 2 C30.79496609 4.77042485 32.92722887 6.87293965 35 12 C35.75151457 17.89701975 36.21468293 24.62784031 33.4375 30.0625 C29.67536196 34.59635866 25.8422832 37.80558056 20 39 C18.41307361 39.07866959 16.82321751 39.10784114 15.234375 39.09765625 C14.43225586 39.09515869 13.63013672 39.09266113 12.80371094 39.09008789 C11.79598633 39.08098389 10.78826172 39.07187988 9.75 39.0625 C6.5325 39.041875 3.315 39.02125 0 39 C0 26.13 0 13.26 0 0 Z " fill="#6979D6" transform="translate(92,23)"/>
<path d="M0 0 C0.99 0 1.98 0 3 0 C3 2.97 3 5.94 3 9 C1.66666667 9 0.33333333 9 -1 9 C-2.29243536 13.1196377 -3.26252625 16.66831683 -3 21 C-3.60328125 21.02578125 -4.2065625 21.0515625 -4.828125 21.078125 C-10.16987156 21.45721669 -12.27286117 22.00663697 -16 26 C-18.625 25.9375 -18.625 25.9375 -21 25 C-23.47082138 21.29376793 -23.54464038 18.29660742 -23 14 C-21.875 11.5 -21.875 11.5 -20 10 C-15.91834173 9.48979272 -14.47042703 9.68638198 -11 12 C-11 12.66 -11 13.32 -11 14 C-8.36 14 -5.72 14 -3 14 C-4.00193437 10.20696275 -4.81024227 7.28463659 -7 4 C-6.01 3.34 -5.02 2.68 -4 2 C-4 2.66 -4 3.32 -4 4 C-3.34 4 -2.68 4 -2 4 C-2 3.34 -2 2.68 -2 2 C-1.34 2 -0.68 2 0 2 C0 1.34 0 0.68 0 0 Z " fill="#F5F8FB" transform="translate(198,30)"/>
<path d="M0 0 C0 0.33 0 0.66 0 1 C-2.64 1 -5.28 1 -8 1 C-8.33 1.99 -8.66 2.98 -9 4 C-10.8125 4.7109375 -10.8125 4.7109375 -13 5.375 C-15.26499069 6.24938238 -15.26499069 6.24938238 -17 8 C-18.03422991 12.34161096 -18.10286173 16.5512303 -18 21 C-17.34 21 -16.68 21 -16 21 C-16 21.66 -16 22.32 -16 23 C-15.34 23 -14.68 23 -14 23 C-14 23.99 -14 24.98 -14 26 C-13.01 26 -12.02 26 -11 26 C-11 26.66 -11 27.32 -11 28 C-6.05 28 -1.1 28 4 28 C4.99 24.7 5.98 21.4 7 18 C4.05270463 20.63106761 4.05270463 20.63106761 3 23 C2.34 22.67 1.68 22.34 1 22 C1.33 21.34 1.66 20.68 2 20 C2.12082534 18.33654418 2.1753794 16.66779409 2.1875 15 C2.20167969 14.113125 2.21585938 13.22625 2.23046875 12.3125 C2.22713126 9.80480016 2.22713126 9.80480016 0 8 C-2.65537372 7.43479997 -5.29144713 7.26211802 -8 7 C-7.67 6.34 -7.34 5.68 -7 5 C-3.7 5 -0.4 5 3 5 C6 13.625 6 13.625 6 17 C6.99 16.34 7.98 15.68 9 15 C9.66790364 12.1284035 9.66790364 12.1284035 9 9 C6.75 6.25 6.75 6.25 4 4 C3 3 2 2 1 1 C3.65696068 1.15182632 5.44234524 1.47324024 7.41015625 3.33203125 C11.43489757 8.15468047 12.46773913 11.09003935 12.4140625 17.25390625 C11.70554443 21.95285156 9.32332608 25.65504707 6 29 C0.85636333 31.66518467 -4.33596093 31.66635754 -10 31 C-14.86479088 28.70028068 -17.73361668 25.881441 -20 21 C-20.7575964 15.37214104 -20.74858253 10.64112324 -18.375 5.4375 C-12.78870636 -0.29580137 -7.5931908 -0.40517026 0 0 Z " fill="#6B7CD7" transform="translate(151,32)"/>
<path d="M0 0 C2.64 0 5.28 0 8 0 C8.24629119 7.55492246 6.3368266 13.92470821 4.25 21.125 C3.90195313 22.38699219 3.55390625 23.64898437 3.1953125 24.94921875 C2.84726563 26.16480469 2.49921875 27.38039063 2.140625 28.6328125 C1.82641602 29.73512207 1.51220703 30.83743164 1.18847656 31.97314453 C-0.10457254 35.26632917 -1.57023573 37.43910009 -4 40 C-7.14930893 41.04976964 -9.38814456 41.10131595 -12.6875 41.0625 C-13.68136719 41.05347656 -14.67523438 41.04445312 -15.69921875 41.03515625 C-16.83810547 41.01775391 -16.83810547 41.01775391 -18 41 C-18 38.36 -18 35.72 -18 33 C-17.67 33 -17.34 33 -17 33 C-17 35.31 -17 37.62 -17 40 C-16.38511719 39.7834375 -15.77023438 39.566875 -15.13671875 39.34375 C-14.32847656 39.0653125 -13.52023438 38.786875 -12.6875 38.5 C-11.88699219 38.2215625 -11.08648437 37.943125 -10.26171875 37.65625 C-8 37 -8 37 -5 37 C-5 36.34 -5 35.68 -5 35 C-4.01 35 -3.02 35 -2 35 C-1.81824219 34.01 -1.63648438 33.02 -1.44921875 32 C0.81854828 19.98540069 0.81854828 19.98540069 2.625 15.625 C4.23084705 11.39140322 4.69870759 7.48821802 5 3 C1.72433251 3.71574665 1.72433251 3.71574665 0.375 6.9375 C-1.18115036 10.84408581 -1.52077998 14.6921268 -1.7890625 18.86328125 C-2 21 -2 21 -3 23 C-4.32 23 -5.64 23 -7 23 C-9.10575375 17.47239641 -10.37851209 12.93002267 -10 7 C-8 10 -8 10 -5 17 C-3.35 11.39 -1.7 5.78 0 0 Z " fill="#717DCC" transform="translate(235,33)"/>
<path d="M0 0 C2.31991302 1.62183965 2.91525436 2.54267892 3.43359375 5.33984375 C3.44399112 12.25409492 3.44399112 12.25409492 1.4375 15.625 C-1.91967398 17.51879045 -4.20829285 17.48258091 -8 17 C-9.7265625 15.88671875 -9.7265625 15.88671875 -11 14 C-11.14453125 10.8984375 -11.14453125 10.8984375 -10.8125 7.375 C-10.71582031 6.20710938 -10.61914062 5.03921875 -10.51953125 3.8359375 C-10.34808594 2.90007813 -10.17664063 1.96421875 -10 1 C-6.88450128 -0.55774936 -3.3955612 -0.56480622 0 0 Z " fill="#F0F6FD" transform="translate(151,39)"/>
<path d="M0 0 C2.97 0 5.94 0 9 0 C11 4 11 4 11 7 C10.34 7 9.68 7 9 7 C8.34 5.68 7.68 4.36 7 3 C5.68 3.33 4.36 3.66 3 4 C3.680625 4.556875 3.680625 4.556875 4.375 5.125 C6.47587121 7.54908216 7.09128236 9.94930506 8 13 C8.33 13.66 8.66 14.32 9 15 C9.2275015 16.87056791 9.40962811 18.74685958 9.5625 20.625 C9.64628906 21.62789062 9.73007813 22.63078125 9.81640625 23.6640625 C9.87699219 24.43492188 9.93757812 25.20578125 10 26 C12.97 26.33 15.94 26.66 19 27 C19.33 26.34 19.66 25.68 20 25 C20.66 25.33 21.32 25.66 22 26 C21.01 28.97 20.02 31.94 19 35 C18.01 35 17.02 35 16 35 C16 35.66 16 36.32 16 37 C14.75336669 37.50833591 13.50250613 38.00631145 12.25 38.5 C11.55390625 38.7784375 10.8578125 39.056875 10.140625 39.34375 C8 40 8 40 4 40 C4 37.69 4 35.38 4 33 C4.62648437 32.97421875 5.25296875 32.9484375 5.8984375 32.921875 C6.71570313 32.86515625 7.53296875 32.8084375 8.375 32.75 C9.18710938 32.70359375 9.99921875 32.6571875 10.8359375 32.609375 C13.18838927 32.2077908 13.18838927 32.2077908 14.2890625 29.953125 C14.52367187 29.30859375 14.75828125 28.6640625 15 28 C12.69 28 10.38 28 8 28 C7.03852522 24.8342787 6.08140467 21.66725638 5.125 18.5 C4.85558594 17.613125 4.58617187 16.72625 4.30859375 15.8125 C2.7280147 10.56960364 1.28127068 5.32411506 0 0 Z M16 28 C16.33 29.98 16.66 31.96 17 34 C17.66 33.34 18.32 32.68 19 32 C18.6814823 29.89179203 18.6814823 29.89179203 18 28 C17.34 28 16.68 28 16 28 Z " fill="#5E74ED" transform="translate(214,33)"/>
<path d="M0 0 C1.65 0 3.3 0 5 0 C7.730428 6.6087747 8.30854827 11.97815289 7.6875 19.0625 C7.62626953 19.92810547 7.56503906 20.79371094 7.50195312 21.68554688 C7.35069113 23.79157931 7.17764963 25.89602913 7 28 C4.36 28 1.72 28 -1 28 C-0.67 18.76 -0.34 9.52 0 0 Z " fill="#5871F2" transform="translate(249,34)"/>
<path d="M0 0 C0.66 0.33 1.32 0.66 2 1 C2 3.97 2 6.94 2 10 C2.99 10 3.98 10 5 10 C5.99 11.485 5.99 11.485 7 13 C10.55672179 14.2188121 10.55672179 14.2188121 14 15 C14.4640625 14.0409375 14.4640625 14.0409375 14.9375 13.0625 C16 11 16 11 17 10 C18.66617115 9.95936168 20.33388095 9.957279 22 10 C21.67 12.31 21.34 14.62 21 17 C19.35 17 17.7 17 16 17 C15.67 17.99 15.34 18.98 15 20 C3.45631068 18.31067961 3.45631068 18.31067961 0.125 15.3125 C-2.01741129 10.90865456 -2.34712801 7.27280271 -1.0625 2.5625 C-0.711875 1.716875 -0.36125 0.87125 0 0 Z " fill="#5A71F3" transform="translate(171,42)"/>
<path d="M0 0 C2.475 0.495 2.475 0.495 5 1 C5.20638953 24.78877436 5.20638953 24.78877436 4 35 C2.68 35 1.36 35 0 35 C0 23.45 0 11.9 0 0 Z " fill="#5671F2" transform="translate(285,25)"/>
<path d="M0 0 C1.32 0.33 2.64 0.66 4 1 C3.97679687 1.84304687 3.95359375 2.68609375 3.9296875 3.5546875 C3.91164062 4.65039062 3.89359375 5.74609375 3.875 6.875 C3.84019531 8.51082031 3.84019531 8.51082031 3.8046875 10.1796875 C3.69939466 13.1371051 3.69939466 13.1371051 6 15 C8.66949409 15.24315656 8.66949409 15.24315656 11.625 15.125 C12.62789062 15.10695313 13.63078125 15.08890625 14.6640625 15.0703125 C15.82035156 15.03550781 15.82035156 15.03550781 17 15 C17.66 13.35 18.32 11.7 19 10 C19.66 10 20.32 10 21 10 C20.39102647 13.55234558 19.54266151 16.7331874 18 20 C15.66062093 21.16968953 14.22630632 21.13364221 11.625 21.125 C10.85414063 21.12757812 10.08328125 21.13015625 9.2890625 21.1328125 C7.0671811 21.00389788 5.13381492 20.61383717 3 20 C3 19.34 3 18.68 3 18 C2.01 18 1.02 18 0 18 C0 12.06 0 6.12 0 0 Z " fill="#6C7FE2" transform="translate(137,40)"/>
<path d="M0 0 C0.80103149 0.00202423 1.60206299 0.00404846 2.42736816 0.00613403 C3.24483521 0.00517731 4.06230225 0.00422058 4.90454102 0.00323486 C6.63627194 0.00255308 8.3680054 0.00440724 10.09973145 0.00857544 C12.75978298 0.01392374 15.41966566 0.00863041 18.07971191 0.00222778 C19.75809771 0.00288857 21.43648339 0.00416973 23.11486816 0.00613403 C23.91589966 0.0041098 24.71693115 0.00208557 25.54223633 0 C31.15616738 0.02399575 31.15616738 0.02399575 32.27111816 1.13894653 C32.34370762 3.32534106 32.35485599 5.51395042 32.33361816 7.70144653 C32.32459473 8.8989856 32.31557129 10.09652466 32.30627441 11.33035278 C32.29467285 12.25718872 32.28307129 13.18402466 32.27111816 14.13894653 C30.62111816 14.13894653 28.97111816 14.13894653 27.27111816 14.13894653 C27.60111816 13.14894653 27.93111816 12.15894653 28.27111816 11.13894653 C28.93111816 11.13894653 29.59111816 11.13894653 30.27111816 11.13894653 C30.27111816 8.16894653 30.27111816 5.19894653 30.27111816 2.13894653 C18.72111816 2.13894653 7.17111816 2.13894653 -4.72888184 2.13894653 C-4.72888184 5.10894653 -4.72888184 8.07894653 -4.72888184 11.13894653 C-5.38888184 11.13894653 -6.04888184 11.13894653 -6.72888184 11.13894653 C-6.75576334 9.49320087 -6.77522307 7.8473324 -6.79138184 6.20144653 C-6.8029834 5.2849231 -6.81458496 4.36839966 -6.82653809 3.42410278 C-6.63330209 -1.09761943 -3.86785194 0.01653244 0 0 Z " fill="#6D76AE" transform="translate(40.7288818359375,29.861053466796875)"/>
<path d="M0 0 C0.99 0.66 1.98 1.32 3 2 C2.690625 2.763125 2.38125 3.52625 2.0625 4.3125 C-0.59234283 11.0276907 -0.6462131 16.21907894 2 23 C1.34 23 0.68 23 0 23 C-0.66 22.34 -1.32 21.68 -2 21 C-2.4125 21.78375 -2.825 22.5675 -3.25 23.375 C-5.0392777 26.05891656 -6.04988139 26.88098949 -9 28 C-9 25 -9 25 -7 21.9375 C-3.97839314 16.91928367 -4.25633185 11.29338753 -5.51953125 5.69921875 C-5.67808594 5.13847656 -5.83664063 4.57773437 -6 4 C-4.02 2.68 -2.04 1.36 0 0 Z " fill="#EFF7FD" transform="translate(167,34)"/>
<path d="M0 0 C2.64 0 5.28 0 8 0 C7.67 0.66 7.34 1.32 7 2 C4.03 1.505 4.03 1.505 1 1 C1 13.21 1 25.42 1 38 C2.98 38 4.96 38 7 38 C7 33.71 7 29.42 7 25 C8.32 24.67 9.64 24.34 11 24 C14.88223113 27.12472262 17.0718387 30.43330219 19 35 C19 35.66 19 36.32 19 37 C21.64 37.33 24.28 37.66 27 38 C27.33 37.01 27.66 36.02 28 35 C28.33 36.32 28.66 37.64 29 39 C24.55911314 40.03276438 22.03325796 40.1948427 18 38 C16.0859375 35.43359375 16.0859375 35.43359375 14.375 32.4375 C12.13492057 28.10508419 12.13492057 28.10508419 8 26 C8 30.29 8 34.58 8 39 C5.36 39 2.72 39 0 39 C0 26.13 0 13.26 0 0 Z " fill="#6E7BB4" transform="translate(283,23)"/>
<path d="M0 0 C3.96 0 7.92 0 12 0 C12 12.87 12 25.74 12 39 C9.03 39 6.06 39 3 39 C3 28.44 3 17.88 3 7 C2.01 7 1.02 7 0 7 C0 4.69 0 2.38 0 0 Z M2 2 C2.33 2.99 2.66 3.98 3 5 C3.1529647 7.51054905 3.25695178 9.99888525 3.31640625 12.51171875 C3.33718735 13.23994339 3.35796844 13.96816803 3.37937927 14.71846008 C3.44468746 17.04137875 3.50367237 19.36440906 3.5625 21.6875 C3.60570305 23.26368335 3.64931792 24.83985548 3.69335938 26.41601562 C3.8003496 30.27722975 3.90166961 34.13855603 4 38 C6.31 38 8.62 38 11 38 C11 26.12 11 14.24 11 2 C8.03 2 5.06 2 2 2 Z " fill="#7B88CC" transform="translate(198,23)"/>
<path d="M0 0 C2.97 0 5.94 0 9 0 C9 11.88 9 23.76 9 36 C6.69 36 4.38 36 2 36 C2 25.77 2 15.54 2 5 C2.66 5.33 3.32 5.66 4 6 C4.19616609 10.4579968 4.38047068 14.91640535 4.5625 19.375 C4.61857422 20.64601563 4.67464844 21.91703125 4.73242188 23.2265625 C4.78076172 24.43828125 4.82910156 25.65 4.87890625 26.8984375 C4.94960327 28.57945557 4.94960327 28.57945557 5.02172852 30.29443359 C5 33 5 33 4 35 C5.32 35 6.64 35 8 35 C7.67 24.11 7.34 13.22 7 2 C5.35 1.67 3.7 1.34 2 1 C1.67 1.66 1.34 2.32 1 3 C0.67 2.01 0.34 1.02 0 0 Z " fill="#6174E2" transform="translate(200,25)"/>
<path d="M0 0 C4.29 0 8.58 0 13 0 C12.01 0.495 12.01 0.495 11 1 C11.185625 2.134375 11.37125 3.26875 11.5625 4.4375 C11.706875 5.613125 11.85125 6.78875 12 8 C11 9 11 9 8.49609375 9.09765625 C6.98208984 9.08025391 6.98208984 9.08025391 5.4375 9.0625 C4.42558594 9.05347656 3.41367187 9.04445313 2.37109375 9.03515625 C1.58863281 9.02355469 0.80617187 9.01195312 0 9 C0 6.03 0 3.06 0 0 Z " fill="#EBF5FE" transform="translate(36,32)"/>
<path d="M0 0 C2.31 0 4.62 0 7 0 C9 3.75 9 3.75 9 6 C11.97 6 14.94 6 18 6 C18 6.66 18 7.32 18 8 C15.69 8.33 13.38 8.66 11 9 C10.93941406 10.02480469 10.87882812 11.04960938 10.81640625 12.10546875 C10.73194974 13.46615695 10.64730433 14.82683343 10.5625 16.1875 C10.50352539 17.19780273 10.50352539 17.19780273 10.44335938 18.22851562 C10.21072435 21.89699102 9.82792989 25.41694206 9 29 C8.67 29 8.34 29 8 29 C8.01571045 28.12263184 8.01571045 28.12263184 8.03173828 27.22753906 C8.07340264 24.56840337 8.09935901 21.90933647 8.125 19.25 C8.14175781 18.32960938 8.15851563 17.40921875 8.17578125 16.4609375 C8.18222656 15.57148437 8.18867188 14.68203125 8.1953125 13.765625 C8.20578613 12.94868164 8.21625977 12.13173828 8.22705078 11.29003906 C7.97638543 8.76182299 7.13652769 7.24608883 6 5 C6 3.68 6 2.36 6 1 C4.35 1 2.7 1 1 1 C1 9.91 1 18.82 1 28 C0.67 28 0.34 28 0 28 C0 18.76 0 9.52 0 0 Z " fill="#828FDA" transform="translate(248,33)"/>
<path d="M0 0 C0.33 0 0.66 0 1 0 C1.33 4.95 1.66 9.9 2 15 C3.4540625 12.5559375 3.4540625 12.5559375 4.9375 10.0625 C8.23216043 5.27579048 8.23216043 5.27579048 11.46875 4.11328125 C13.69198535 3.89869683 15.77471614 3.82843617 18 4 C18.33 4.66 18.66 5.32 19 6 C18.19152271 7.16945792 17.37810888 8.33550461 16.5625 9.5 C16.11003906 10.1496875 15.65757812 10.799375 15.19140625 11.46875 C14.79824219 11.9740625 14.40507812 12.479375 14 13 C13.67 13 13.34 13 13 13 C13 11.35 13 9.7 13 8 C10.48313064 8.40311361 10.48313064 8.40311361 8 10 C6.91758097 12.66525288 6.50727893 15.1407915 6 18 C4.02 18 2.04 18 0 18 C0 12.06 0 6.12 0 0 Z " fill="#7683D4" transform="translate(291,28)"/>
<path d="M0 0 C2.97 0 5.94 0 9 0 C11 4 11 4 11 7 C10.34 7 9.68 7 9 7 C8.34 5.68 7.68 4.36 7 3 C5.68 3.33 4.36 3.66 3 4 C3.680625 4.556875 3.680625 4.556875 4.375 5.125 C6.47587121 7.54908216 7.09128236 9.94930506 8 13 C8.33 13.66 8.66 14.32 9 15 C9.2275015 16.87056791 9.40962811 18.74685958 9.5625 20.625 C9.64628906 21.62789062 9.73007813 22.63078125 9.81640625 23.6640625 C9.87699219 24.43492188 9.93757812 25.20578125 10 26 C11.65 26.33 13.3 26.66 15 27 C15 27.33 15 27.66 15 28 C12.69 28 10.38 28 8 28 C7.03852522 24.8342787 6.08140467 21.66725638 5.125 18.5 C4.85558594 17.613125 4.58617187 16.72625 4.30859375 15.8125 C2.7280147 10.56960364 1.28127068 5.32411506 0 0 Z " fill="#6D7CD3" transform="translate(214,33)"/>
<path d="M0 0 C2.52775351 3.79163027 2.22443035 6.80874031 2.125 11.1875 C2.11597656 11.93708984 2.10695313 12.68667969 2.09765625 13.45898438 C2.07412578 15.30612654 2.03825561 17.15310412 2 19 C0.35 19 -1.3 19 -3 19 C-3.27648714 16.5837428 -3.52178337 14.17088623 -3.75 11.75 C-3.87181641 10.72712891 -3.87181641 10.72712891 -3.99609375 9.68359375 C-4.31423444 6.04265034 -4.33866546 4.42399849 -2.015625 1.515625 C-1.01789063 0.76539063 -1.01789063 0.76539063 0 0 Z " fill="#5771F4" transform="translate(272,41)"/>
<path d="M0 0 C10.89 0 21.78 0 33 0 C32.67 0.99 32.34 1.98 32 3 C10.46808511 3.19148936 10.46808511 3.19148936 0 2 C0 1.34 0 0.68 0 0 Z " fill="#7D84A5" transform="translate(36,41)"/>
<path d="M0 0 C0.99 0.33 1.98 0.66 3 1 C-0.52189742 6.03306617 -3.86729312 10.54100188 -9 14 C-12.80578516 14.11532682 -15.22622435 11.38852903 -18 9 C-17.67 8.01 -17.34 7.02 -17 6 C-16.2575 6.515625 -15.515 7.03125 -14.75 7.5625 C-12.20915447 9.2067231 -12.20915447 9.2067231 -9.9375 8.8125 C-8.9784375 8.4103125 -8.9784375 8.4103125 -8 8 C-7.29875 7.731875 -6.5975 7.46375 -5.875 7.1875 C-3.58972088 5.74015656 -3.06886277 4.4431149 -2 2 C-1.34 1.34 -0.68 0.68 0 0 Z " fill="#8D91C0" transform="translate(61,47)"/>
<path d="M0 0 C0.66 0 1.32 0 2 0 C2 1.32 2 2.64 2 4 C2.598125 3.484375 3.19625 2.96875 3.8125 2.4375 C4.534375 1.963125 5.25625 1.48875 6 1 C6.99 1.33 7.98 1.66 9 2 C8.51917969 2.69480469 8.03835937 3.38960937 7.54296875 4.10546875 C5.8061222 7.36370494 5.51385179 9.64789746 5.3125 13.3125 C5.24675781 14.38113281 5.18101562 15.44976562 5.11328125 16.55078125 C5.07589844 17.35902344 5.03851563 18.16726562 5 19 C2.525 18.01 2.525 18.01 0 17 C0 11.39 0 5.78 0 0 Z " fill="#E9F1FD" transform="translate(126,34)"/>
<path d="M0 0 C0 1.65 0 3.3 0 5 C-0.99 5 -1.98 5 -3 5 C-2.34 8.63 -1.68 12.26 -1 16 C-5.59037956 14.85240511 -6.33669182 13.70960782 -9 10 C-8.34 10 -7.68 10 -7 10 C-7.0825 9.0925 -7.165 8.185 -7.25 7.25 C-7 4 -7 4 -5.1875 1.625 C-3 0 -3 0 0 0 Z " fill="#5B71EF" transform="translate(304,36)"/>
<path d="M0 0 C0 0.33 0 0.66 0 1 C-2.64 1 -5.28 1 -8 1 C-8.33 1.99 -8.66 2.98 -9 4 C-10.84765625 5.16796875 -10.84765625 5.16796875 -13.0625 6.1875 C-14.361875 6.785625 -15.66125 7.38375 -17 8 C-17 13.61 -17 19.22 -17 25 C-21.02652602 19.63129865 -20.77708258 15.52225489 -20 9 C-18.24622296 5.15518112 -16.77861729 3.55615521 -13.375 1.125 C-8.85132096 -0.38289301 -4.72322405 -0.25202974 0 0 Z " fill="#7382CE" transform="translate(151,32)"/>
<path d="M0 0 C0.45782446 3.93729039 0.35642392 5.52476811 -2.0625 8.75 C-6.59514275 12.22181147 -10.19883062 13.11620448 -15.875 12.75 C-16.90625 12.5025 -17.9375 12.255 -19 12 C-19.33 11.34 -19.66 10.68 -20 10 C-16.37 10 -12.74 10 -9 10 C-8.67 9.34 -8.34 8.68 -8 8 C-6.35 8 -4.7 8 -3 8 C-2.67 5.69 -2.34 3.38 -2 1 C-6.82442184 2.26946514 -6.82442184 2.26946514 -10 6 C-10.99 6 -11.98 6 -13 6 C-13 4 -13 4 -11.5625 1.875 C-7.83399538 -0.85317411 -4.47410256 -0.34416174 0 0 Z " fill="#7985CC" transform="translate(195,51)"/>
<path d="M0 0 C4.22797927 2.99481865 4.22797927 2.99481865 6 5 C6.375 8.3125 6.375 8.3125 6 11 C0.60598179 11.26527958 0.60598179 11.26527958 -2 11 C-3.625 9.5 -3.625 9.5 -5 8 C-8.04230823 7.49989476 -8.04230823 7.49989476 -11 8 C-13.12508244 11.18762365 -13.5020163 13.26512223 -14 17 C-14.33 17 -14.66 17 -15 17 C-15.36530991 10.66796149 -15.36530991 10.66796149 -13.79296875 7.79296875 C-12 6 -12 6 -9.6953125 5.50390625 C-4.67043197 5.6184552 -1.0926234 5.72590128 3 9 C1.515 4.545 1.515 4.545 0 0 Z " fill="#6D7CD0" transform="translate(189,33)"/>
<path d="M0 0 C0.66 0.33 1.32 0.66 2 1 C2 2.65 2 4.3 2 6 C3.134375 6.12375 4.26875 6.2475 5.4375 6.375 C6.613125 6.58125 7.78875 6.7875 9 7 C9.33 7.66 9.66 8.32 10 9 C8.3125 11.0625 8.3125 11.0625 6 13 C3.375 12.9375 3.375 12.9375 1 12 C-1.69461986 7.95807022 -1.23200889 5.7948504 -1 1 C-0.67 0.67 -0.34 0.34 0 0 Z " fill="#F0F6FE" transform="translate(176,43)"/>
<path d="M0 0 C2.17854707 3.2678206 3.49760034 6.38058265 5 10 C5.66 7.36 6.32 4.72 7 2 C7.33 2 7.66 2 8 2 C8.02694851 3.95825873 8.04637218 5.91662226 8.0625 7.875 C8.07410156 8.96554688 8.08570313 10.05609375 8.09765625 11.1796875 C8 14 8 14 7 16 C5.68 16 4.36 16 3 16 C0.89424625 10.47239641 -0.37851209 5.93002267 0 0 Z " fill="#7E8DE5" transform="translate(225,40)"/>
<path d="M0 0 C5.75 0.75 5.75 0.75 8 3 C7.67 3.66 7.34 4.32 7 5 C7.66 5 8.32 5 9 5 C9 4.34 9 3.68 9 3 C9.66 3 10.32 3 11 3 C11 4.32 11 5.64 11 7 C6.71 7 2.42 7 -2 7 C-1.34 4.69 -0.68 2.38 0 0 Z " fill="#E7F2FE" transform="translate(60,34)"/>
<path d="M0 0 C0.66 0 1.32 0 2 0 C-1.01834862 10.01834862 -1.01834862 10.01834862 -4 13 C-7.14930893 14.04976964 -9.38814456 14.10131595 -12.6875 14.0625 C-13.68136719 14.05347656 -14.67523438 14.04445313 -15.69921875 14.03515625 C-16.83810547 14.01775391 -16.83810547 14.01775391 -18 14 C-18 11.36 -18 8.72 -18 6 C-17.67 6 -17.34 6 -17 6 C-17 8.31 -17 10.62 -17 13 C-16.38511719 12.7834375 -15.77023438 12.566875 -15.13671875 12.34375 C-14.32847656 12.0653125 -13.52023438 11.786875 -12.6875 11.5 C-11.88699219 11.2215625 -11.08648437 10.943125 -10.26171875 10.65625 C-8 10 -8 10 -5 10 C-5 9.34 -5 8.68 -5 8 C-4.01 8 -3.02 8 -2 8 C-1.34 5.36 -0.68 2.72 0 0 Z " fill="#818DD8" transform="translate(235,60)"/>
<path d="M0 0 C0.96164063 0.09796875 1.92328125 0.1959375 2.9140625 0.296875 C3.87054688 0.38453125 4.82703125 0.4721875 5.8125 0.5625 C8.50746492 1.04126168 10.27986652 1.5142046 12.5390625 3.046875 C14.72714606 6.21216093 14.9409131 9.33037399 15.2265625 13.109375 C15.31292969 14.15222656 15.39929688 15.19507813 15.48828125 16.26953125 C15.5390625 19.046875 15.5390625 19.046875 14.5390625 22.046875 C13.2190625 21.716875 11.8990625 21.386875 10.5390625 21.046875 C11.1990625 20.386875 11.8590625 19.726875 12.5390625 19.046875 C12.8587866 16.48165111 12.8587866 16.48165111 12.7890625 13.609375 C12.79421875 12.64128906 12.799375 11.67320313 12.8046875 10.67578125 C12.72293247 7.81541387 12.72293247 7.81541387 10.5390625 5.046875 C7.96227021 4.34332385 5.53417153 3.80169968 2.9140625 3.359375 C2.20765625 3.22982422 1.50125 3.10027344 0.7734375 2.96679688 C-0.96933104 2.64885937 -2.71490624 2.34637671 -4.4609375 2.046875 C-2.4609375 0.046875 -2.4609375 0.046875 0 0 Z " fill="#7584D9" transform="translate(104.4609375,28.953125)"/>
<path d="M0 0 C0.66 0 1.32 0 2 0 C1.39102647 3.55234558 0.54266151 6.7331874 -1 10 C-3.3396669 11.16983345 -4.83391527 11.1661241 -7.4375 11.1875 C-8.61119141 11.20876953 -8.61119141 11.20876953 -9.80859375 11.23046875 C-12 11 -12 11 -15 9 C-13.87851563 8.90525391 -13.87851563 8.90525391 -12.734375 8.80859375 C-7.01335321 8.29331478 -7.01335321 8.29331478 -2.37890625 5.30859375 C-1.15441965 3.18951296 -1.15441965 3.18951296 0 0 Z " fill="#6173EF" transform="translate(156,50)"/>
<path d="M0 0 C1.65 0 3.3 0 5 0 C4.67 0.99 4.34 1.98 4 3 C4 2.34 4 1.68 4 1 C3.34 1 2.68 1 2 1 C2 9.25 2 17.5 2 26 C3.32 26 4.64 26 6 26 C6 24.02 6 22.04 6 20 C6.33 20 6.66 20 7 20 C7 22.64 7 25.28 7 28 C4.36 28 1.72 28 -1 28 C-0.67 18.76 -0.34 9.52 0 0 Z " fill="#6272DA" transform="translate(249,34)"/>
<path d="M0 0 C0.350625 0.45375 0.70125 0.9075 1.0625 1.375 C3.77096206 3.64661334 6.60795328 4.16798854 10 5 C10.309375 4.360625 10.61875 3.72125 10.9375 3.0625 C12 1 12 1 13 0 C14.66617115 -0.04063832 16.33388095 -0.042721 18 0 C17.67 2.31 17.34 4.62 17 7 C16.38125 6.835 15.7625 6.67 15.125 6.5 C13.03936614 5.92365356 13.03936614 5.92365356 11 6 C9.49856918 5.89355528 7.99857132 5.76609925 6.5 5.625 C5.30890625 5.52058594 5.30890625 5.52058594 4.09375 5.4140625 C2 5 2 5 0 3 C0 2.01 0 1.02 0 0 Z " fill="#5C74E7" transform="translate(175,52)"/>
<path d="M0 0 C3.83424653 0.5477495 5.53869759 2.06231647 8 5 C11 10.35714286 11 10.35714286 11 13 C13.64 13.33 16.28 13.66 19 14 C19.33 13.01 19.66 12.02 20 11 C20.33 12.32 20.66 13.64 21 15 C16.55911314 16.03276438 14.03325796 16.1948427 10 14 C8.0859375 11.43359375 8.0859375 11.43359375 6.375 8.4375 C4.13492057 4.10508419 4.13492057 4.10508419 0 2 C-0.33 2.99 -0.66 3.98 -1 5 C-0.67 3.35 -0.34 1.7 0 0 Z " fill="#717ECB" transform="translate(291,47)"/>
<path d="M0 0 C2.475 0.495 2.475 0.495 5 1 C5 5.29 5 9.58 5 14 C4.01 14.495 4.01 14.495 3 15 C1.08697693 11.73386305 0.64325339 9.00554752 0.375 5.25 C0.30023438 4.26515625 0.22546875 3.2803125 0.1484375 2.265625 C0.09945312 1.51796875 0.05046875 0.7703125 0 0 Z " fill="#5870F5" transform="translate(119,31)"/>
<path d="M0 0 C0.66 0 1.32 0 2 0 C2 7.92 2 15.84 2 24 C0.68 23.67 -0.64 23.34 -2 23 C-1.67 22.34 -1.34 21.68 -1 21 C-0.84824451 19.40737934 -0.75099675 17.80935144 -0.68359375 16.2109375 C-0.64169922 15.26992188 -0.59980469 14.32890625 -0.55664062 13.359375 C-0.51732422 12.37453125 -0.47800781 11.3896875 -0.4375 10.375 C-0.39431641 9.38242187 -0.35113281 8.38984375 -0.30664062 7.3671875 C-0.20038931 4.91160162 -0.09835036 2.45591297 0 0 Z " fill="#6071DA" transform="translate(98,30)"/>
<path d="M0 0 C0.66 0 1.32 0 2 0 C6.28873976 5.71831968 6.22027554 9.60475437 5.359375 16.62109375 C5.24078125 17.40613281 5.1221875 18.19117187 5 19 C4.67 19 4.34 19 4 19 C4 14.38 4 9.76 4 5 C3.34 5 2.68 5 2 5 C2 5.66 2 6.32 2 7 C1.34 7 0.68 7 0 7 C0 9.97 0 12.94 0 16 C-0.33 16 -0.66 16 -1 16 C-1.02692484 13.70839681 -1.04636124 11.41670454 -1.0625 9.125 C-1.07410156 7.84882812 -1.08570313 6.57265625 -1.09765625 5.2578125 C-1 2 -1 2 0 0 Z " fill="#6277EE" transform="translate(251,35)"/>
<path d="M0 0 C0 3.34419152 -0.47519394 4.06840321 -2.375 6.6875 C-2.81585938 7.31011719 -3.25671875 7.93273438 -3.7109375 8.57421875 C-4.13632813 9.04472656 -4.56171875 9.51523437 -5 10 C-5.66 10 -6.32 10 -7 10 C-6.67 14.62 -6.34 19.24 -6 24 C-8.6399773 21.3600227 -8.95162761 19.49339836 -9.3125 15.8125 C-8.81697196 9.76705795 -6.73643406 5.57857642 -2.25 1.5 C-1.5075 1.005 -0.765 0.51 0 0 Z " fill="#818CD6" transform="translate(175,32)"/>
<path d="M0 0 C0.99 0.33 1.98 0.66 3 1 C2.34 1 1.68 1 1 1 C1.061875 1.78375 1.12375 2.5675 1.1875 3.375 C1.125625 4.24125 1.06375 5.1075 1 6 C-2.18762365 8.12508244 -4.26512223 8.5020163 -8 9 C-8.33 9.99 -8.66 10.98 -9 12 C-8.34 12.33 -7.68 12.66 -7 13 C-8.32 13 -9.64 13 -11 13 C-11 10.69 -11 8.38 -11 6 C-6.545 5.505 -6.545 5.505 -2 5 C-1.34 3.35 -0.68 1.7 0 0 Z " fill="#6274DB" transform="translate(229,60)"/>
<path d="M0 0 C3.96 0 7.92 0 12 0 C12 0.33 12 0.66 12 1 C8.7 1.33 5.4 1.66 2 2 C2 8.27 2 14.54 2 21 C1.67 21 1.34 21 1 21 C0.67 14.07 0.34 7.14 0 0 Z " fill="#E5EDFC" transform="translate(36,43)"/>
<path d="M0 0 C0.33 0 0.66 0 1 0 C1 3.96 1 7.92 1 12 C8.59 12 16.18 12 24 12 C24 12.33 24 12.66 24 13 C15.42 13.33 6.84 13.66 -2 14 C-2 13.34 -2 12.68 -2 12 C-1.34 12 -0.68 12 0 12 C0 8.04 0 4.08 0 0 Z " fill="#8F97C8" transform="translate(36,52)"/>
<path d="M0 0 C0.66 0 1.32 0 2 0 C3.3271261 3.9813783 3.06915913 7.85045227 3 12 C2.01 12.33 1.02 12.66 0 13 C-1.25069801 10.49860398 -1.13302467 8.72607309 -1.125 5.9375 C-1.12757813 5.03902344 -1.13015625 4.14054687 -1.1328125 3.21484375 C-1 1 -1 1 0 0 Z " fill="#5871F0" transform="translate(135,42)"/>
<path d="M0 0 C-0.33 0.99 -0.66 1.98 -1 3 C-7.6 3 -14.2 3 -21 3 C-17.16613864 1.08306932 -15.21578393 0.65782135 -11.0625 0.375 C-10.04285156 0.30023438 -9.02320313 0.22546875 -7.97265625 0.1484375 C-5.30805592 0.01538256 -2.66718991 -0.02947171 0 0 Z " fill="#8C94BE" transform="translate(69,41)"/>
<path d="M0 0 C4.39750672 0.50740462 6.86948922 3.08293314 10 6 C10 6.66 10 7.32 10 8 C4.55414013 8.36305732 4.55414013 8.36305732 2.1875 6.8125 C0.72461964 4.57968261 0.35494045 2.62655933 0 0 Z " fill="#5B72EE" transform="translate(300,53)"/>
<path d="M0 0 C0.99 0 1.98 0 3 0 C2.690625 0.804375 2.38125 1.60875 2.0625 2.4375 C1.96527048 7.97958263 5.43745159 11.00212772 9 15 C8.67 15.66 8.34 16.32 8 17 C7.401875 16.21625 6.80375 15.4325 6.1875 14.625 C4.08914751 11.85425677 4.08914751 11.85425677 1 10 C-0.1577506 6.52674819 -0.06866652 3.63932552 0 0 Z " fill="#7181D4" transform="translate(301,41)"/>
<path d="M0 0 C0.99 1.32 1.98 2.64 3 4 C3.66 4 4.32 4 5 4 C5.33 3.01 5.66 2.02 6 1 C6.66 1.33 7.32 1.66 8 2 C6.85821872 3.66944521 5.71147095 5.3354948 4.5625 7 C3.92441406 7.928125 3.28632813 8.85625 2.62890625 9.8125 C2.09136719 10.534375 1.55382812 11.25625 1 12 C0.67 12 0.34 12 0 12 C0 8.04 0 4.08 0 0 Z " fill="#ECF5FE" transform="translate(292,32)"/>
<path d="M0 0 C0.33 0 0.66 0 1 0 C1.44534366 6.95230941 1.67289916 11.59696035 -3 17 C-4.6168484 13.76630321 -3.00851816 10.69371743 -2.0625 7.375 C-1.76956055 6.31539062 -1.76956055 6.31539062 -1.47070312 5.234375 C-0.98685508 3.48780156 -0.49424877 1.74365876 0 0 Z " fill="#E2EDFC" transform="translate(241,43)"/>
<path d="M0 0 C2.82058903 2.82058903 2.33317932 4.75217372 2.375 8.6875 C2.31285513 14.73419586 1.64782148 18.21223431 -2 23 C-2.33 22.01 -2.66 21.02 -3 20 C-2.52949219 19.27425781 -2.05898437 18.54851563 -1.57421875 17.80078125 C0.43691277 14.22266388 0.33604449 11.16773052 0.1875 7.1875 C0.17396484 6.49462891 0.16042969 5.80175781 0.14648438 5.08789062 C0.11138845 3.39158735 0.05758943 1.69568864 0 0 Z " fill="#7582CB" transform="translate(125,33)"/>
<path d="M0 0 C1.98 0 3.96 0 6 0 C5.34 1.65 4.68 3.3 4 5 C1.36 5 -1.28 5 -4 5 C-3.01 4.67 -2.02 4.34 -1 4 C-0.26676204 1.98491642 -0.26676204 1.98491642 0 0 Z " fill="#D9EAFC" transform="translate(223,61)"/>
<path d="M0 0 C2.12109375 0.43359375 2.12109375 0.43359375 5.12109375 3.43359375 C1.49109375 3.10359375 -2.13890625 2.77359375 -5.87890625 2.43359375 C-6.20890625 3.42359375 -6.53890625 4.41359375 -6.87890625 5.43359375 C-8.19890625 5.10359375 -9.51890625 4.77359375 -10.87890625 4.43359375 C-7.7467762 0.0758476 -5.00743824 -0.00844425 0 0 Z " fill="#747FD4" transform="translate(266.87890625,31.56640625)"/>
<path d="M0 0 C1.9375 0.8125 1.9375 0.8125 4 2 C4.33 2.99 4.66 3.98 5 5 C4.67 5.66 4.34 6.32 4 7 C1.525 6.01 1.525 6.01 -1 5 C-1 1 -1 1 0 0 Z " fill="#F1F4F8" transform="translate(45,49)"/>
<path d="M0 0 C0.33 0 0.66 0 1 0 C1 4.29 1 8.58 1 13 C-0.65 13 -2.3 13 -4 13 C-3.67 12.01 -3.34 11.02 -3 10 C-2.34 10 -1.68 10 -1 10 C-0.67 6.7 -0.34 3.4 0 0 Z " fill="#7D84A9" transform="translate(72,31)"/>
<path d="M0 0 C2.0625 1.25 2.0625 1.25 3 3 C2.6875 5.1875 2.6875 5.1875 2 7 C1.34 5.35 0.68 3.7 0 2 C-3.3 2.33 -6.6 2.66 -10 3 C-10 2.34 -10 1.68 -10 1 C-6.8181784 -0.5909108 -3.46363796 -0.39584434 0 0 Z " fill="#D8E8FE" transform="translate(151,39)"/>
<path d="M0 0 C1.65 0 3.3 0 5 0 C5.33 1.32 5.66 2.64 6 4 C4.35 4.33 2.7 4.66 1 5 C0.67 3.35 0.34 1.7 0 0 Z " fill="#8B91C3" transform="translate(42,34)"/>
<path d="M0 0 C0 0.99 0 1.98 0 3 C-3.50591348 5.68099266 -6.65840504 6.49516338 -11 7 C-11 6.34 -11 5.68 -11 5 C-7.37 3.35 -3.74 1.7 0 0 Z " fill="#6C79D6" transform="translate(121,55)"/>
<path d="M0 0 C1.134375 0.020625 2.26875 0.04125 3.4375 0.0625 C1.10535852 1.26878008 -1.05892139 2.2279738 -3.5625 3.0625 C-3.5625 7.0225 -3.5625 10.9825 -3.5625 15.0625 C-3.8925 15.0625 -4.2225 15.0625 -4.5625 15.0625 C-4.58935412 12.75006208 -4.60882841 10.4375373 -4.625 8.125 C-4.63660156 6.83722656 -4.64820313 5.54945312 -4.66015625 4.22265625 C-4.53212333 0.07951094 -4.53212333 0.07951094 0 0 Z " fill="#EBF4FD" transform="translate(262.5625,40.9375)"/>
<path d="M0 0 C5.625 -0.25 5.625 -0.25 9 2 C9 2.66 9 3.32 9 4 C6.03 3.67 3.06 3.34 0 3 C0 2.01 0 1.02 0 0 Z " fill="#DDE8FB" transform="translate(178,40)"/>
<path d="M0 0 C1.65 0.33 3.3 0.66 5 1 C4.67 2.32 4.34 3.64 4 5 C2.35 4.67 0.7 4.34 -1 4 C-0.67 2.68 -0.34 1.36 0 0 Z " fill="#9096C3" transform="translate(60,34)"/>
<path d="M0 0 C1.00289062 0.10183594 2.00578125 0.20367188 3.0390625 0.30859375 C3.80992188 0.39238281 4.58078125 0.47617187 5.375 0.5625 C5.045 1.2225 4.715 1.8825 4.375 2.5625 C-4.19642857 2.84821429 -4.19642857 2.84821429 -7.625 0.5625 C-4.89657939 -0.80171031 -3.01546682 -0.31557211 0 0 Z " fill="#6C7BD4" transform="translate(107.625,29.4375)"/>
<path d="M0 0 C0.33 0 0.66 0 1 0 C1.33 2.31 1.66 4.62 2 7 C2.99 7 3.98 7 5 7 C5 7.99 5 8.98 5 10 C5.66 10.33 6.32 10.66 7 11 C4.625 10.6875 4.625 10.6875 2 10 C-0.4294516 6.3558226 -0.16179575 4.28758728 0 0 Z " fill="#B7C4FA" transform="translate(175,45)"/>
<path d="M0 0 C0.66 0.66 1.32 1.32 2 2 C4.58354218 2.16687448 4.58354218 2.16687448 7 2 C6.67 2.99 6.34 3.98 6 5 C3.03 5 0.06 5 -3 5 C-2.34 4.67 -1.68 4.34 -1 4 C-0.34786708 1.97536745 -0.34786708 1.97536745 0 0 Z " fill="#E2ECFE" transform="translate(41,36)"/>
<path d="M0 0 C10.15317287 -0.63019694 10.15317287 -0.63019694 13.6875 2 C14.120625 2.66 14.55375 3.32 15 4 C14.01 4.33 13.02 4.66 12 5 C11.34 3.68 10.68 2.36 10 1 C6.7 1 3.4 1 0 1 C0 0.67 0 0.34 0 0 Z " fill="#6877D6" transform="translate(176,32)"/>
<path d="M0 0 C0.78375 0.04125 1.5675 0.0825 2.375 0.125 C2.045 2.435 1.715 4.745 1.375 7.125 C0.941875 6.485625 0.50875 5.84625 0.0625 5.1875 C-1.53739177 2.85753997 -1.53739177 2.85753997 -4.625 2.125 C-2.625 0.125 -2.625 0.125 0 0 Z " fill="#697AE2" transform="translate(190.625,51.875)"/>
<path d="M0 0 C0.66 0.66 1.32 1.32 2 2 C0.35 3.98 -1.3 5.96 -3 8 C-4.32 7.34 -5.64 6.68 -7 6 C-6.030625 5.38125 -5.06125 4.7625 -4.0625 4.125 C-0.97164638 2.34321154 -0.97164638 2.34321154 0 0 Z " fill="#E7F1FA" transform="translate(124,53)"/>
<path d="M0 0 C1.2065625 0.0309375 1.2065625 0.0309375 2.4375 0.0625 C2.4375 2.3725 2.4375 4.6825 2.4375 7.0625 C1.7775 7.0625 1.1175 7.0625 0.4375 7.0625 C0.14875 6.44375 -0.14 5.825 -0.4375 5.1875 C-1.49970042 2.92924235 -1.49970042 2.92924235 -3.5625 1.0625 C-2.5625 0.0625 -2.5625 0.0625 0 0 Z " fill="#EDF3FC" transform="translate(124.5625,25.9375)"/>
<path d="M0 0 C0.33 0 0.66 0 1 0 C1 2.97 1 5.94 1 9 C-1.475 8.01 -1.475 8.01 -4 7 C-4 6.34 -4 5.68 -4 5 C-3.01 4.34 -2.02 3.68 -1 3 C-0.67 2.01 -0.34 1.02 0 0 Z " fill="#DFE7FB" transform="translate(130,44)"/>
<path d="M0 0 C0.66 0.33 1.32 0.66 2 1 C1.34 3.31 0.68 5.62 0 8 C-2 5 -2 5 -3 2 C-2.01 1.34 -1.02 0.68 0 0 Z " fill="#EAF3FD" transform="translate(230,43)"/>
<path d="M0 0 C2.56616632 3.84924948 2.55097676 6.4349304 3 11 C0.55178556 9.08400609 0.00675177 8.02756971 -0.75 4.9375 C-1 2 -1 2 0 0 Z " fill="#E8EFFD" transform="translate(219,50)"/>
<path d="M0 0 C0.33 0 0.66 0 1 0 C1 1.98 1 3.96 1 6 C-0.65 6.66 -2.3 7.32 -4 8 C-2.68 5.36 -1.36 2.72 0 0 Z " fill="#DAE6FE" transform="translate(162,52)"/>
<path d="M0 0 C1.98 0 3.96 0 6 0 C6.33 0.66 6.66 1.32 7 2 C5.68 3.65 4.36 5.3 3 7 C3.061875 6.21625 3.12375 5.4325 3.1875 4.625 C3.125625 3.75875 3.06375 2.8925 3 2 C2.01 1.34 1.02 0.68 0 0 Z " fill="#818AC9" transform="translate(303,32)"/>
<path d="M0 0 C1.32 0.33 2.64 0.66 4 1 C3.34 3.31 2.68 5.62 2 8 C0 6 0 6 -0.125 2.875 C-0.08375 1.92625 -0.0425 0.9775 0 0 Z " fill="#6F85F3" transform="translate(137,40)"/>
<path d="M0 0 C0.66 0.33 1.32 0.66 2 1 C1.67 2.98 1.34 4.96 1 7 C0.01 6.67 -0.98 6.34 -2 6 C-1.125 1.125 -1.125 1.125 0 0 Z " fill="#6978D9" transform="translate(296,39)"/>
<path d="M0 0 C0.66 1.32 1.32 2.64 2 4 C1.34 4 0.68 4 0 4 C0 4.66 0 5.32 0 6 C-1.65 6.66 -3.3 7.32 -5 8 C-3.35 5.36 -1.7 2.72 0 0 Z " fill="#E7EFFC" transform="translate(309,34)"/>
</svg>
